<mxfile host="app.diagrams.net" modified="2024-04-05T14:12:48.534Z" agent="Mozilla/5.0 (Windows NT 10.0; Win64; x64; rv:120.0) Gecko/20100101 Firefox/120.0" version="24.2.2" etag="_zzu_peSA3-HAsG6wRJ8" type="github">
  <diagram name="Page-1" id="ydBuxbT_4h1h34Hqd_6a">
    <mxGraphModel>
      <root>
        <mxCell id="0" />
        <mxCell id="1" parent="0" />
      </root>
    </mxGraphModel>
  </diagram>
</mxfile>
